<svg height="32" width="32" xmlns="http://www.w3.org/2000/svg"><g fill="none" fill-rule="evenodd"><circle cx="16" cy="16" fill="#c71d23" r="16"/><path d="M24.099 14.223h-9.087a.79.79 0 0 0-.79.79v1.975c0 .436.353.79.79.79h5.531a.79.79 0 0 1 .79.79v.395a2.37 2.37 0 0 1-2.37 2.37h-7.507a.79.79 0 0 1-.79-.79v-7.506a2.37 2.37 0 0 1 2.37-2.37h11.06c.437 0 .79-.354.791-.79l.001-1.975a.79.79 0 0 0-.79-.79H13.038a5.926 5.926 0 0 0-5.926 5.925V24.1c0 .436.354.79.79.79h11.655a5.333 5.333 0 0 0 5.333-5.333v-4.543a.79.79 0 0 0-.79-.79z" fill="#fff"/></g></svg>